<mxfile host="app.diagrams.net" modified="2022-03-29T03:43:53.925Z" agent="5.0 (Windows NT 10.0; Win64; x64) AppleWebKit/537.36 (KHTML, like Gecko) Chrome/99.0.4844.82 Safari/537.36" etag="Si1Q5N0ZSZAU7pRNtDN8" version="16.6.2" type="github">
  <diagram id="l3UoU12UBDZ79Bp-kKOp" name="Page-1">
    <mxGraphModel dx="1422" dy="762" grid="1" gridSize="10" guides="1" tooltips="1" connect="1" arrows="1" fold="1" page="1" pageScale="1" pageWidth="827" pageHeight="1169" math="0" shadow="0">
      <root>
        <mxCell id="0" />
        <mxCell id="1" parent="0" />
        <mxCell id="DFO-0ac6-ra-kcL9trr5-8" value="" style="group" vertex="1" connectable="0" parent="1">
          <mxGeometry x="20" y="10" width="310" height="330" as="geometry" />
        </mxCell>
        <mxCell id="DFO-0ac6-ra-kcL9trr5-2" value="SocketService" style="rounded=0;whiteSpace=wrap;html=1;align=left;" vertex="1" parent="DFO-0ac6-ra-kcL9trr5-8">
          <mxGeometry width="310" height="30" as="geometry" />
        </mxCell>
        <mxCell id="DFO-0ac6-ra-kcL9trr5-3" value="离线更新资源接口&lt;br&gt;&quot;/updateResFromUsb/&quot;" style="rounded=0;whiteSpace=wrap;html=1;align=left;" vertex="1" parent="DFO-0ac6-ra-kcL9trr5-8">
          <mxGeometry y="30" width="310" height="60" as="geometry" />
        </mxCell>
        <mxCell id="DFO-0ac6-ra-kcL9trr5-4" value="离线更新资源进度接口&lt;br&gt;&quot;/updateResFromUsbProgress/&quot;" style="rounded=0;whiteSpace=wrap;html=1;align=left;" vertex="1" parent="DFO-0ac6-ra-kcL9trr5-8">
          <mxGeometry y="90" width="310" height="60" as="geometry" />
        </mxCell>
        <mxCell id="DFO-0ac6-ra-kcL9trr5-5" value="在线更新资源接口&lt;br&gt;&quot;/updateResOnline/&quot;" style="rounded=0;whiteSpace=wrap;html=1;align=left;" vertex="1" parent="DFO-0ac6-ra-kcL9trr5-8">
          <mxGeometry y="150" width="310" height="60" as="geometry" />
        </mxCell>
        <mxCell id="DFO-0ac6-ra-kcL9trr5-6" value="在线更新资源进度接口&lt;br&gt;&quot;/updateResOnlineProgress/&quot;" style="rounded=0;whiteSpace=wrap;html=1;align=left;" vertex="1" parent="DFO-0ac6-ra-kcL9trr5-8">
          <mxGeometry y="210" width="310" height="60" as="geometry" />
        </mxCell>
        <mxCell id="DFO-0ac6-ra-kcL9trr5-7" value="离线更新程序接口&lt;br&gt;&quot;/updateApkAndWebFromUsb/&quot;" style="rounded=0;whiteSpace=wrap;html=1;align=left;" vertex="1" parent="DFO-0ac6-ra-kcL9trr5-8">
          <mxGeometry y="270" width="310" height="60" as="geometry" />
        </mxCell>
      </root>
    </mxGraphModel>
  </diagram>
</mxfile>
